<?xml version="1.0" encoding="UTF-8" standalone="no"?>
<!-- Created with Sodipodi ("http://www.sodipodi.com/") -->
<svg
   xmlns:dc="http://purl.org/dc/elements/1.1/"
   xmlns:cc="http://web.resource.org/cc/"
   xmlns:rdf="http://www.w3.org/1999/02/22-rdf-syntax-ns#"
   xmlns:svg="http://www.w3.org/2000/svg"
   xmlns="http://www.w3.org/2000/svg"
   xmlns:xlink="http://www.w3.org/1999/xlink"
   xmlns:sodipodi="http://sodipodi.sourceforge.net/DTD/sodipodi-0.dtd"
   xmlns:inkscape="http://www.inkscape.org/namespaces/inkscape"
   id="svg602"
   sodipodi:version="0.32"
   width="120pt"
   height="130pt"
   xml:space="preserve"
   sodipodi:docbase="/home/54967546315/kevora/ui/svg"
   sodipodi:docname="kevora2.svg"
   inkscape:version="0.45.1"
   inkscape:output_extension="org.inkscape.output.svg.inkscape"><metadata
     id="metadata32"><rdf:RDF><cc:Work
         rdf:about=""><dc:format>image/svg+xml</dc:format><dc:type
           rdf:resource="http://purl.org/dc/dcmitype/StillImage" /></cc:Work></rdf:RDF></metadata><defs
     id="defs604"><linearGradient
       id="linearGradient665"><stop
         style="stop-color:#270000;stop-opacity:0.6549;"
         offset="0"
         id="stop666" /><stop
         style="stop-color:#007537;stop-opacity:1;"
         offset="1"
         id="stop667" /></linearGradient><linearGradient
       id="linearGradient660"><stop
         style="stop-color:#27ff00;stop-opacity:1;"
         offset="0"
         id="stop661" /><stop
         style="stop-color:#007537;stop-opacity:1;"
         offset="1"
         id="stop662" /></linearGradient><linearGradient
       id="linearGradient654"><stop
         style="stop-color:#ffffff;stop-opacity:1;"
         offset="0"
         id="stop655" /><stop
         style="stop-color:#66668d;stop-opacity:1;"
         offset="1"
         id="stop656" /></linearGradient><linearGradient
       id="linearGradient647"><stop
         style="stop-color:#ffffff;stop-opacity:1;"
         offset="0"
         id="stop648" /><stop
         style="stop-color:#66668d;stop-opacity:1;"
         offset="1"
         id="stop649" /></linearGradient><linearGradient
       id="linearGradient643"><stop
         style="stop-color:#000;stop-opacity:1;"
         offset="0"
         id="stop644" /><stop
         style="stop-color:#fff;stop-opacity:1;"
         offset="1"
         id="stop645" /></linearGradient><linearGradient
       xlink:href="#linearGradient647"
       id="linearGradient646"
       x1="316.31347"
       y1="85.721398"
       x2="387.91016"
       y2="85.721398"
       gradientTransform="scale(1.1330833,0.8825476)"
       gradientUnits="userSpaceOnUse" /><linearGradient
       xlink:href="#linearGradient654"
       id="linearGradient653"
       x1="164.92562"
       y1="399.0539"
       x2="239.16759"
       y2="399.0539"
       gradientTransform="scale(1.4349807,0.6968735)"
       gradientUnits="userSpaceOnUse" /><linearGradient
       xlink:href="#linearGradient660"
       id="linearGradient659"
       x1="2.80680824e-2"
       y1="0.22651923"
       x2="0.57009393"
       y2="1.30468714" /><radialGradient
       xlink:href="#linearGradient660"
       id="radialGradient663"
       cx="441.90087"
       cy="115.08761"
       r="61.288735"
       fx="441.90087"
       fy="115.08761"
       gradientTransform="scale(0.9129355,1.0953676)"
       gradientUnits="userSpaceOnUse" /><radialGradient
       xlink:href="#linearGradient665"
       id="radialGradient668"
       cx="0.11217223"
       cy="8.59068856e-2"
       r="1.00395393"
       fx="0.11217223"
       fy="8.59068856e-2" /><linearGradient
       inkscape:collect="always"
       xlink:href="#linearGradient647"
       id="linearGradient2194"
       gradientUnits="userSpaceOnUse"
       gradientTransform="matrix(1.1330833,0,0,0.8825476,-335.22584,-59.351127)"
       x1="316.31347"
       y1="85.721398"
       x2="387.91016"
       y2="85.721398" /><linearGradient
       inkscape:collect="always"
       xlink:href="#linearGradient647"
       id="linearGradient2197"
       gradientUnits="userSpaceOnUse"
       gradientTransform="matrix(1.1330831,0,0,0.8825478,-335.22584,-59.351127)"
       x1="316.31352"
       y1="112.83287"
       x2="387.91022"
       y2="112.83287" /><linearGradient
       inkscape:collect="always"
       xlink:href="#linearGradient647"
       id="linearGradient2200"
       gradientUnits="userSpaceOnUse"
       gradientTransform="matrix(1.1330831,0,0,0.8825478,-335.22584,-59.351127)"
       x1="316.31352"
       y1="139.9446"
       x2="387.91022"
       y2="139.9446" /><linearGradient
       y2="413.3201"
       x2="351.81329"
       y1="359.51547"
       x1="351.81329"
       gradientTransform="scale(1.218184,0.820894)"
       gradientUnits="userSpaceOnUse"
       id="linearGradient4478"
       xlink:href="#linearGradient4885"
       inkscape:collect="always" /><radialGradient
       r="25.481205"
       fy="245.8278"
       fx="309.60745"
       cy="245.8278"
       cx="309.60745"
       gradientTransform="scale(1.339271,0.746675)"
       gradientUnits="userSpaceOnUse"
       id="radialGradient4476"
       xlink:href="#linearGradient2379"
       inkscape:collect="always" /><linearGradient
       y2="480.11966"
       x2="225.64362"
       y1="444.68439"
       x1="225.64362"
       gradientTransform="matrix(0.895343,0,0,0.773593,328.4169,-21.51722)"
       gradientUnits="userSpaceOnUse"
       id="linearGradient4474"
       xlink:href="#linearGradient17285"
       inkscape:collect="always" /><linearGradient
       y2="480.11966"
       x2="225.64362"
       y1="444.68439"
       x1="225.64362"
       gradientTransform="matrix(0.895343,0,0,0.773593,-205.2389,176.7785)"
       gradientUnits="userSpaceOnUse"
       id="linearGradient4472"
       xlink:href="#linearGradient17285"
       inkscape:collect="always" /><linearGradient
       y2="480.11966"
       x2="225.64362"
       y1="444.68439"
       x1="225.64362"
       gradientTransform="matrix(0.895343,0,0,0.773593,589.397,-598.6492)"
       gradientUnits="userSpaceOnUse"
       id="linearGradient4470"
       xlink:href="#linearGradient17285"
       inkscape:collect="always" /><linearGradient
       y2="480.11966"
       x2="225.64362"
       y1="444.68439"
       x1="225.64362"
       gradientTransform="matrix(0.895343,0,0,0.773593,-745.8101,-65.77006)"
       gradientUnits="userSpaceOnUse"
       id="linearGradient4468"
       xlink:href="#linearGradient17285"
       inkscape:collect="always" /><linearGradient
       y2="480.11966"
       x2="225.64362"
       y1="444.68439"
       x1="225.64362"
       gradientTransform="matrix(0.895342,0,0,0.773593,-949.4756,-557.0638)"
       gradientUnits="userSpaceOnUse"
       id="linearGradient4466"
       xlink:href="#linearGradient17285"
       inkscape:collect="always" /><linearGradient
       y2="480.11966"
       x2="225.64362"
       y1="444.68439"
       x1="225.64362"
       gradientTransform="matrix(0.895343,0,0,0.773593,-701.7228,-1126.306)"
       gradientUnits="userSpaceOnUse"
       id="linearGradient4464"
       xlink:href="#linearGradient17285"
       inkscape:collect="always" /><linearGradient
       y2="480.11966"
       x2="225.64362"
       y1="444.68439"
       x1="225.64362"
       gradientTransform="matrix(0.895343,0,0,0.773593,-33.0484,-1351.758)"
       gradientUnits="userSpaceOnUse"
       id="linearGradient4462"
       xlink:href="#linearGradient17285"
       inkscape:collect="always" /><linearGradient
       y2="480.11966"
       x2="225.64362"
       y1="444.68439"
       x1="225.64362"
       gradientTransform="matrix(0.895343,0,0,0.773593,402.3914,-1122.872)"
       gradientUnits="userSpaceOnUse"
       id="linearGradient4460"
       xlink:href="#linearGradient17285"
       inkscape:collect="always" /><linearGradient
       y2="479.57748"
       x2="344.5629"
       y1="225.67493"
       x1="344.5629"
       gradientTransform="matrix(1.631817,-0.536555,0.533503,1.641206,-491.9784,-64.94062)"
       gradientUnits="userSpaceOnUse"
       id="linearGradient4458"
       xlink:href="#linearGradient2633"
       inkscape:collect="always" /><linearGradient
       y2="413.3201"
       x2="351.81329"
       y1="359.51547"
       x1="351.81329"
       gradientTransform="scale(1.218184,0.820894)"
       gradientUnits="userSpaceOnUse"
       id="linearGradient4434"
       xlink:href="#linearGradient4885"
       inkscape:collect="always" /><radialGradient
       r="25.481205"
       fy="245.8278"
       fx="309.60745"
       cy="245.8278"
       cx="309.60745"
       gradientTransform="scale(1.339271,0.746675)"
       gradientUnits="userSpaceOnUse"
       id="radialGradient4432"
       xlink:href="#linearGradient2379"
       inkscape:collect="always" /><linearGradient
       y2="479.57748"
       x2="344.5629"
       y1="225.67493"
       x1="344.5629"
       gradientTransform="matrix(1.631817,-0.536555,0.533503,1.641206,-491.9784,-64.94062)"
       gradientUnits="userSpaceOnUse"
       id="linearGradient3529"
       xlink:href="#linearGradient2633"
       inkscape:collect="always" /><linearGradient
       y2="413.3201"
       x2="351.81329"
       y1="359.51547"
       x1="351.81329"
       gradientTransform="scale(1.218184,0.820894)"
       gradientUnits="userSpaceOnUse"
       id="linearGradient2619"
       xlink:href="#linearGradient4885"
       inkscape:collect="always" /><radialGradient
       r="25.481205"
       fy="245.8278"
       fx="309.60745"
       cy="245.8278"
       cx="309.60745"
       gradientTransform="scale(1.339271,0.746675)"
       gradientUnits="userSpaceOnUse"
       id="radialGradient2617"
       xlink:href="#linearGradient2379"
       inkscape:collect="always" /><linearGradient
       y2="480.11966"
       x2="225.64362"
       y1="444.68439"
       x1="225.64362"
       gradientTransform="matrix(0.895343,-1.096572e-16,-1.158165e-15,0.773593,328.4169,-21.51722)"
       gradientUnits="userSpaceOnUse"
       id="linearGradient2615"
       xlink:href="#linearGradient17285"
       inkscape:collect="always" /><linearGradient
       y2="480.11966"
       x2="225.64362"
       y1="444.68439"
       x1="225.64362"
       gradientTransform="matrix(0.895343,-6.124168e-15,8.288939e-16,0.773593,-205.2389,176.7785)"
       gradientUnits="userSpaceOnUse"
       id="linearGradient2613"
       xlink:href="#linearGradient17285"
       inkscape:collect="always" /><linearGradient
       y2="480.11966"
       x2="225.64362"
       y1="444.68439"
       x1="225.64362"
       gradientTransform="matrix(0.895343,2.434054e-15,2.50853e-15,0.773593,589.397,-598.6492)"
       gradientUnits="userSpaceOnUse"
       id="linearGradient2611"
       xlink:href="#linearGradient17285"
       inkscape:collect="always" /><linearGradient
       y2="480.11966"
       x2="225.64362"
       y1="444.68439"
       x1="225.64362"
       gradientTransform="matrix(0.895343,2.37796e-15,-2.952029e-15,0.773593,-745.8101,-65.77006)"
       gradientUnits="userSpaceOnUse"
       id="linearGradient2609"
       xlink:href="#linearGradient17285"
       inkscape:collect="always" /><linearGradient
       y2="480.11966"
       x2="225.64362"
       y1="444.68439"
       x1="225.64362"
       gradientTransform="matrix(0.895342,9.507505e-16,6.075434e-16,0.773593,-949.4756,-557.0638)"
       gradientUnits="userSpaceOnUse"
       id="linearGradient2607"
       xlink:href="#linearGradient17285"
       inkscape:collect="always" /><linearGradient
       y2="480.11966"
       x2="225.64362"
       y1="444.68439"
       x1="225.64362"
       gradientTransform="matrix(0.895343,-4.122534e-16,-2.689432e-16,0.773593,-701.7228,-1126.306)"
       gradientUnits="userSpaceOnUse"
       id="linearGradient2605"
       xlink:href="#linearGradient17285"
       inkscape:collect="always" /><linearGradient
       y2="480.11966"
       x2="225.64362"
       y1="444.68439"
       x1="225.64362"
       gradientTransform="matrix(0.895343,6.724955e-16,3.172792e-15,0.773593,-33.0484,-1351.758)"
       gradientUnits="userSpaceOnUse"
       id="linearGradient2603"
       xlink:href="#linearGradient17285"
       inkscape:collect="always" /><linearGradient
       y2="480.11966"
       x2="225.64362"
       y1="444.68439"
       x1="225.64362"
       gradientTransform="matrix(0.895343,-1.513216e-15,3.209119e-15,0.773593,402.3914,-1122.872)"
       gradientUnits="userSpaceOnUse"
       id="linearGradient2601"
       xlink:href="#linearGradient17285"
       inkscape:collect="always" /><linearGradient
       y2="479.57748"
       x2="344.5629"
       y1="225.67493"
       x1="344.5629"
       gradientTransform="matrix(0.993993,-0.318376,0.324974,0.973844,319.2388,400.8726)"
       gradientUnits="userSpaceOnUse"
       id="linearGradient2599"
       xlink:href="#linearGradient2633"
       inkscape:collect="always" /><linearGradient
       inkscape:collect="always"
       id="linearGradient3967"><stop
         style="stop-color:#ffffff;stop-opacity:0.81069958"
         offset="0"
         id="stop3969" /><stop
         style="stop-color:#ffffff;stop-opacity:0"
         offset="1"
         id="stop3971" /></linearGradient><linearGradient
       id="linearGradient3953"><stop
         style="stop-color:#142d54;stop-opacity:1;"
         offset="0"
         id="stop3955" /><stop
         id="stop3965"
         offset="0.60000002"
         style="stop-color:#546d94;stop-opacity:1;" /><stop
         id="stop3963"
         offset="1"
         style="stop-color:#94add5;stop-opacity:1;" /></linearGradient><linearGradient
       inkscape:collect="always"
       xlink:href="#linearGradient3967"
       id="linearGradient3977"
       x1="465.44342"
       y1="234.58502"
       x2="465.44342"
       y2="314.69388"
       gradientUnits="userSpaceOnUse"
       gradientTransform="translate(-260.1316,113.1007)" /><linearGradient
       inkscape:collect="always"
       xlink:href="#linearGradient3953"
       id="linearGradient3991"
       gradientUnits="userSpaceOnUse"
       x1="468.89658"
       y1="234.48335"
       x2="468.89658"
       y2="362.25885"
       gradientTransform="translate(-260.6029,113.1007)" /><linearGradient
       inkscape:collect="always"
       xlink:href="#linearGradient5782"
       id="linearGradient30038"
       gradientUnits="userSpaceOnUse"
       gradientTransform="matrix(4.134694,0,0,0.57622,-1363.497,-1159.952)"
       x1="178.63411"
       y1="3145.5344"
       x2="178.63411"
       y2="3266.5718" /><linearGradient
       inkscape:collect="always"
       xlink:href="#linearGradient30033"
       id="linearGradient30036"
       gradientTransform="matrix(4.199239,0,0,0.239057,-2.157192,-94.44805)"
       x1="178.63411"
       y1="3145.5344"
       x2="178.63411"
       y2="3266.5718"
       gradientUnits="userSpaceOnUse" /><linearGradient
       inkscape:collect="always"
       xlink:href="#linearGradient17285"
       id="linearGradient17302"
       gradientUnits="userSpaceOnUse"
       gradientTransform="matrix(0.895343,-2.19993e-16,-9.559968e-17,0.773593,-745.8101,-65.77006)"
       x1="225.64362"
       y1="444.68439"
       x2="225.64362"
       y2="480.11966" /><linearGradient
       inkscape:collect="always"
       xlink:href="#linearGradient17285"
       id="linearGradient17300"
       gradientUnits="userSpaceOnUse"
       gradientTransform="matrix(0.895342,-2.545028e-16,-2.272441e-17,0.773593,-949.4756,-557.0638)"
       x1="225.64362"
       y1="444.68439"
       x2="225.64362"
       y2="480.11966" /><linearGradient
       inkscape:collect="always"
       xlink:href="#linearGradient17285"
       id="linearGradient17298"
       gradientUnits="userSpaceOnUse"
       gradientTransform="matrix(0.895343,-2.930164e-16,1.038449e-17,0.773593,-701.7228,-1126.306)"
       x1="225.64362"
       y1="444.68439"
       x2="225.64362"
       y2="480.11966" /><linearGradient
       inkscape:collect="always"
       xlink:href="#linearGradient17285"
       id="linearGradient17296"
       gradientUnits="userSpaceOnUse"
       gradientTransform="matrix(0.895343,-5.547829e-17,1.83205e-16,0.773593,-33.0484,-1351.758)"
       x1="225.64362"
       y1="444.68439"
       x2="225.64362"
       y2="480.11966" /><linearGradient
       inkscape:collect="always"
       xlink:href="#linearGradient17285"
       id="linearGradient17294"
       gradientUnits="userSpaceOnUse"
       gradientTransform="matrix(0.895343,-2.728859e-16,-2.502043e-17,0.773593,402.3914,-1122.872)"
       x1="225.64362"
       y1="444.68439"
       x2="225.64362"
       y2="480.11966" /><linearGradient
       inkscape:collect="always"
       xlink:href="#linearGradient17285"
       id="linearGradient17292"
       gradientUnits="userSpaceOnUse"
       gradientTransform="matrix(0.895343,-1.730461e-16,1.326767e-17,0.773593,-205.2389,176.7785)"
       x1="225.64362"
       y1="444.68439"
       x2="225.64362"
       y2="480.11966" /><linearGradient
       inkscape:collect="always"
       xlink:href="#linearGradient17285"
       id="linearGradient17290"
       gradientUnits="userSpaceOnUse"
       gradientTransform="matrix(0.895343,-2.093151e-16,2.512519e-17,0.773593,589.397,-598.6492)"
       x1="225.64362"
       y1="444.68439"
       x2="225.64362"
       y2="480.11966" /><linearGradient
       inkscape:collect="always"
       xlink:href="#linearGradient17285"
       id="linearGradient17288"
       gradientTransform="matrix(0.895343,-9.708644e-17,-2.04179e-17,0.773593,328.4169,-21.51722)"
       x1="225.64362"
       y1="444.68439"
       x2="225.64362"
       y2="480.11966"
       gradientUnits="userSpaceOnUse" /><linearGradient
       id="linearGradient2379"><stop
         style="stop-color:#0081bd;stop-opacity:1.0000000;"
         offset="0.0000000"
         id="stop2380" /><stop
         style="stop-color:#0081bd;stop-opacity:0.46875000;"
         offset="0.50000000"
         id="stop3641" /><stop
         style="stop-color:#0000aa;stop-opacity:0.0000000;"
         offset="1.0000000"
         id="stop2381" /></linearGradient><linearGradient
       id="linearGradient3003"><stop
         style="stop-color:#000073;stop-opacity:1.0000000;"
         offset="0.0000000"
         id="stop3004" /><stop
         style="stop-color:#006daa;stop-opacity:1.0000000;"
         offset="1.0000000"
         id="stop3005" /></linearGradient><linearGradient
       id="linearGradient4885"><stop
         style="stop-color:#ffffff;stop-opacity:0.86666667;"
         offset="0.0000000"
         id="stop4886" /><stop
         style="stop-color:#00d7ec;stop-opacity:0.0000000;"
         offset="1.0000000"
         id="stop4887" /></linearGradient><linearGradient
       id="linearGradient7036"><stop
         style="stop-color:#6d94c9;stop-opacity:1.0000000;"
         offset="0.0000000"
         id="stop7037" /><stop
         style="stop-color:#99c0ec;stop-opacity:1.0000000;"
         offset="1.0000000"
         id="stop7038" /></linearGradient><linearGradient
       id="linearGradient12715"><stop
         style="stop-color:#000000;stop-opacity:1.0000000;"
         offset="0.0000000"
         id="stop12716" /><stop
         style="stop-color:#99c0ec;stop-opacity:0.0000000;"
         offset="1.0000000"
         id="stop12717" /></linearGradient><linearGradient
       id="linearGradient5782"><stop
         style="stop-color:#000000;stop-opacity:1.0000000;"
         offset="0.0000000"
         id="stop5783" /><stop
         style="stop-color:#99c0ff;stop-opacity:0.0000000;"
         offset="1.0000000"
         id="stop5784" /></linearGradient><linearGradient
       id="linearGradient2633"><stop
         style="stop-color:#ffcf00;stop-opacity:1.0000000;"
         offset="0.0000000"
         id="stop2634" /><stop
         style="stop-color:#ff9a00;stop-opacity:1.0000000;"
         offset="1.0000000"
         id="stop2635" /></linearGradient><linearGradient
       id="linearGradient4508"><stop
         style="stop-color:#d8e6ff;stop-opacity:1.0000000;"
         offset="0.0000000"
         id="stop4509" /><stop
         style="stop-color:#9eaeff;stop-opacity:1.0000000;"
         offset="1.0000000"
         id="stop4510" /></linearGradient><linearGradient
       inkscape:collect="always"
       id="linearGradient17285"><stop
         style="stop-color:#ffffff;stop-opacity:1;"
         offset="0"
         id="stop17286" /><stop
         style="stop-color:#ffffff;stop-opacity:0;"
         offset="1"
         id="stop17287" /></linearGradient><linearGradient
       inkscape:collect="always"
       id="linearGradient30033"><stop
         style="stop-color:#ffffff;stop-opacity:1;"
         offset="0"
         id="stop30034" /><stop
         style="stop-color:#ffffff;stop-opacity:0;"
         offset="1"
         id="stop30035" /></linearGradient><radialGradient
       inkscape:collect="always"
       xlink:href="#linearGradient26316"
       id="radialGradient35977"
       gradientUnits="userSpaceOnUse"
       gradientTransform="matrix(1.935394,0,0,1.463222,-809.0128,-291.4502)"
       cx="1112.5859"
       cy="580.09229"
       fx="1112.5859"
       fy="580.09229"
       r="218.81656" /><linearGradient
       id="linearGradient26316"><stop
         style="stop-color:#9ec0ff;stop-opacity:1.0000000;"
         offset="0.0000000"
         id="stop26317" /><stop
         style="stop-color:#cddfff;stop-opacity:0.0000000;"
         offset="1.0000000"
         id="stop26318" /></linearGradient><marker
       style="overflow:visible"
       id="Arrow1S"
       refX="0"
       refY="0"
       orient="auto"
       inkscape:stockid="Arrow1S"><path
         transform="scale(0.2,0.2)"
         style="fill-rule:evenodd;stroke:#000000;stroke-width:1pt;marker-start:none"
         d="M 0,0 L 5,-5 L -12.5,0 L 5,5 L 0,0 z "
         id="path983"
         sodipodi:nodetypes="ccccc" /></marker><radialGradient
       inkscape:collect="always"
       xlink:href="#linearGradient26316"
       id="radialGradient35973"
       gradientUnits="userSpaceOnUse"
       gradientTransform="matrix(2.573305,0,0,2.050884,-1690.986,-952.7657)"
       cx="1112.5859"
       cy="580.09229"
       fx="1112.5859"
       fy="580.09229"
       r="218.81656" /></defs><sodipodi:namedview
     id="base"
     inkscape:zoom="1.2523077"
     inkscape:cx="75"
     inkscape:cy="81.050369"
     inkscape:window-width="765"
     inkscape:window-height="614"
     inkscape:window-x="251"
     inkscape:window-y="77"
     inkscape:current-layer="svg602" /><g
     id="g2569"><path
       style="font-size:12px;fill:url(#linearGradient2200);fill-opacity:1;fill-rule:evenodd;stroke:#7f7f7f;stroke-opacity:1"
       d="M 23.683665,81.406673 L 23.683665,83.781673 L 23.683665,107.71917 L 23.683665,111.28167 L 24.433665,111.28167 C 27.871165,120.15667 44.183665,126.84417 63.746165,126.84417 C 83.308665,126.84417 99.621165,120.15667 103.05866,111.28167 L 103.80866,111.28167 L 103.80866,107.71917 L 103.80866,83.781673 L 103.80866,81.406673 L 103.30866,81.406673 C 101.05866,71.969173 84.183665,64.656673 63.746165,64.656673 C 43.308665,64.656673 26.433665,71.969173 24.183665,81.406673 L 23.683665,81.406673 z "
       id="path640" /><path
       style="font-size:12px;fill:url(#linearGradient2197);fill-opacity:1;fill-rule:evenodd;stroke:#7f7f7f;stroke-opacity:1"
       d="M 23.683665,57.479273 L 23.683665,59.854273 L 23.683665,83.791773 L 23.683665,87.354273 L 24.433665,87.354273 C 27.871165,96.229273 44.183665,102.91677 63.746165,102.91677 C 83.308665,102.91677 99.621165,96.229273 103.05866,87.354273 L 103.80866,87.354273 L 103.80866,83.791773 L 103.80866,59.854273 L 103.80866,57.479273 L 103.30866,57.479273 C 101.05866,48.041773 84.183665,40.729273 63.746165,40.729273 C 43.308665,40.729273 26.433665,48.041773 24.183665,57.479273 L 23.683665,57.479273 z "
       id="path651" /><path
       style="font-size:12px;fill:url(#linearGradient2194);fill-opacity:1;fill-rule:evenodd;stroke:#7f7f7f;stroke-opacity:1"
       d="M 23.683665,33.552093 L 23.683665,35.927093 L 23.683665,59.864573 L 23.683665,63.427073 L 24.433665,63.427073 C 27.871165,72.302073 44.183665,78.989573 63.746165,78.989573 C 83.308665,78.989573 99.621165,72.302073 103.05866,63.427073 L 103.80866,63.427073 L 103.80866,59.864573 L 103.80866,35.927093 L 103.80866,33.552093 L 103.30866,33.552093 C 101.05866,24.114593 84.183665,16.802093 63.746165,16.802093 C 43.308665,16.802093 26.433665,24.114593 24.183665,33.552093 L 23.683665,33.552093 z "
       id="path652" /><path
       sodipodi:type="arc"
       style="fill:url(#linearGradient653);fill-opacity:1;fill-rule:evenodd;stroke:#7f7f7f;stroke-width:1pt;stroke-linecap:butt;stroke-linejoin:miter;stroke-opacity:1"
       id="path631"
       d="M 281.14331 275.9281 A 40.077881 19.141647 0 1 1  200.98755,275.9281 A 40.077881 19.141647 0 1 1  281.14331 275.9281 z"
       sodipodi:cx="241.06543"
       sodipodi:cy="275.9281"
       sodipodi:rx="40.077881"
       sodipodi:ry="19.141647"
       transform="translate(-177.30704,-240.00073)" /><g
       transform="matrix(0.1342178,0,0,0.1342178,44.455058,60.375381)"
       id="g2542"><g
         style="display:block"
         inkscape:label="gears"
         id="layer5" /><g
         inkscape:label="globe"
         id="layer6" /><g
         inkscape:label="shadow"
         id="layer4" /><g
         style="display:block"
         inkscape:label="background"
         id="layer3"><g
           id="g4436"
           transform="matrix(1.114643,0,0,1.122143,0.583746,-3.202932)"><g
             id="g4410"><path
               style="fill:url(#linearGradient4458);fill-opacity:1;fill-rule:evenodd;stroke:#000000;stroke-width:10;stroke-linecap:round;stroke-linejoin:round;stroke-miterlimit:4;stroke-dasharray:none;stroke-dashoffset:0;stroke-opacity:1;display:block"
               d="M 236.89774,19.123351 C 181.88746,35.458289 251.69693,83.092088 189.00456,122.18174 C 122.13277,163.87757 113.63739,65.443352 67.721258,129.70235 C 21.804908,193.96139 117.2328,170.7036 99.262525,247.74306 C 81.292066,324.78251 6.0810219,261.22495 18.792378,339.31635 C 31.503554,417.40775 82.615818,333.04356 124.07358,400.29803 C 165.53151,467.55268 67.709537,476.08157 131.60224,522.26036 C 195.49499,568.43929 172.31804,472.48219 248.91862,490.55489 C 325.51917,508.62758 262.37382,584.25447 340.02071,571.46984 C 417.6674,558.68516 333.78284,507.28026 400.65473,465.58441 C 467.52654,423.88874 476.00515,522.27157 521.92144,458.01254 C 567.83772,393.75355 472.42645,417.0627 490.39677,340.02324 C 508.36724,262.9838 583.51066,326.50679 570.79914,248.41541 C 558.08795,170.32401 506.97575,254.6882 465.51794,187.43374 C 424.06013,120.17907 521.93326,111.63337 458.04034,65.454593 C 394.14757,19.275785 417.27358,115.24957 340.673,97.176883 C 264.07244,79.104179 327.28522,3.5118217 249.63858,16.296469 C 244.78575,17.095463 240.56505,18.034251 236.89774,19.123351 z M 263.79199,184.16393 C 319.30108,166.98635 378.16487,197.75337 396.24002,253.35738 L 396.82359,255.15232 C 414.12461,311.69284 382.62645,371.6631 326.49377,389.03384 C 270.36123,406.40437 210.72915,374.65383 193.42803,318.11331 C 176.127,261.57279 207.65934,201.53448 263.79199,184.16393 z "
               id="path1384" /><g
               id="g17969"
               transform="matrix(1.093793,0,0,1.100072,-378.876,-207.7209)"><rect
                 style="opacity:0.71084337;fill:url(#linearGradient4460);fill-opacity:1;fill-rule:nonzero;stroke:none;stroke-width:5;stroke-linecap:round;stroke-linejoin:round;stroke-miterlimit:4;stroke-dashoffset:0;stroke-opacity:1;display:block"
                 id="rect17293"
                 width="63.453465"
                 height="54.824959"
                 x="550.9303"
                 y="-784.00671"
                 ry="17.204021"
                 rx="19.283657"
                 transform="matrix(0.164192,0.986428,-0.978643,0.205565,-0.735936,0.199826)" /><rect
                 style="opacity:0.71084337;fill:url(#linearGradient4462);fill-opacity:1;fill-rule:nonzero;stroke:none;stroke-width:5;stroke-linecap:round;stroke-linejoin:round;stroke-miterlimit:4;stroke-dashoffset:0;stroke-opacity:1;display:block"
                 id="rect17295"
                 width="63.453518"
                 height="54.824966"
                 x="115.49058"
                 y="-1012.8926"
                 ry="16.182053"
                 rx="17.955521"
                 transform="matrix(-0.50396,0.863727,-0.884173,-0.46716,-0.735936,0.199826)" /><rect
                 style="opacity:0.71084337;fill:url(#linearGradient4464);fill-opacity:1;fill-rule:nonzero;stroke:none;stroke-width:5;stroke-linecap:round;stroke-linejoin:round;stroke-miterlimit:4;stroke-dashoffset:0;stroke-opacity:1;display:block"
                 id="rect17297"
                 width="63.453514"
                 height="54.824963"
                 x="-553.18378"
                 y="-787.44116"
                 ry="17.087778"
                 rx="19.591724"
                 transform="matrix(-0.990894,0.134644,-0.176231,-0.984349,-0.735936,0.199826)" /><rect
                 style="opacity:0.71084337;fill:url(#linearGradient4466);fill-opacity:1;fill-rule:nonzero;stroke:none;stroke-width:5;stroke-linecap:round;stroke-linejoin:round;stroke-miterlimit:4;stroke-dashoffset:0;stroke-opacity:1;display:block"
                 id="rect17299"
                 width="63.453495"
                 height="54.824963"
                 x="-800.93665"
                 y="-218.19888"
                 ry="15.68296"
                 rx="17.646011"
                 transform="matrix(-0.776975,-0.629532,0.596272,-0.802782,-0.735936,0.199826)" /><rect
                 style="opacity:0.71084337;fill:url(#linearGradient4468);fill-opacity:1;fill-rule:nonzero;stroke:none;stroke-width:5;stroke-linecap:round;stroke-linejoin:round;stroke-miterlimit:4;stroke-dashoffset:0;stroke-opacity:1;display:block"
                 id="rect17301"
                 width="63.453506"
                 height="54.824951"
                 x="-597.27106"
                 y="273.09479"
                 ry="17.163046"
                 rx="19.246925"
                 transform="matrix(-0.177287,-0.984159,0.975825,-0.218553,-0.735936,0.199826)" /><rect
                 style="opacity:0.71084337;fill:url(#linearGradient4470);fill-opacity:1;fill-rule:nonzero;stroke:none;stroke-width:5;stroke-linecap:round;stroke-linejoin:round;stroke-miterlimit:4;stroke-dashoffset:0;stroke-opacity:1;display:block"
                 id="rect17289"
                 width="63.453518"
                 height="54.824955"
                 x="737.93604"
                 y="-259.7843"
                 ry="15.743488"
                 rx="17.710302"
                 transform="matrix(0.796701,0.604373,-0.570305,0.821433,-0.735936,0.199826)" /><rect
                 style="opacity:0.71084337;fill:url(#linearGradient4472);fill-opacity:1;fill-rule:nonzero;stroke:none;stroke-width:5;stroke-linecap:round;stroke-linejoin:round;stroke-miterlimit:4;stroke-dashoffset:0;stroke-opacity:1;display:block"
                 id="rect17291"
                 width="63.453526"
                 height="54.824905"
                 x="-56.699802"
                 y="515.64301"
                 ry="15.842865"
                 rx="17.669426"
                 transform="matrix(0.595444,-0.803397,0.827747,0.561101,-0.735936,0.199826)" /><rect
                 style="opacity:0.71084337;fill:url(#linearGradient4474);fill-opacity:1;fill-rule:nonzero;stroke:none;stroke-width:5;stroke-linecap:round;stroke-linejoin:round;stroke-miterlimit:4;stroke-dashoffset:0;stroke-opacity:1;display:block"
                 id="rect16041"
                 width="63.453522"
                 height="54.824955"
                 x="476.95605"
                 y="317.34766"
                 ry="16.912451"
                 rx="19.414112"
                 transform="matrix(0.980637,-0.195836,0.236937,0.971525,-0.735936,0.199826)" /></g></g><g
             transform="translate(-756.3031,60.13419)"
             id="g4422"><path
               sodipodi:type="arc"
               style="fill:#002c69;fill-opacity:1;fill-rule:nonzero;stroke:none;stroke-width:1.80015659;stroke-linecap:round;stroke-linejoin:round;stroke-miterlimit:4;stroke-dashoffset:0;stroke-opacity:1"
               id="path1128"
               sodipodi:cx="167.91299"
               sodipodi:cy="165.13126"
               sodipodi:rx="53.756321"
               sodipodi:ry="55.568333"
               d="M 221.66113,166.10106 A 53.756321,55.568333 0 1 1 221.66932,165.13126"
               sodipodi:start="0.017453293"
               sodipodi:end="6.2831853"
               sodipodi:open="true"
               transform="matrix(2.856258,0,0,2.798315,574.9197,-227.3623)" /><path
               sodipodi:type="arc"
               style="fill:url(#radialGradient4476);fill-opacity:1;fill-rule:nonzero;stroke:none;stroke-width:0.3892324;stroke-linecap:round;stroke-linejoin:round;stroke-miterlimit:4;stroke-dashoffset:0;stroke-opacity:1"
               id="path3636"
               sodipodi:cx="414.64847"
               sodipodi:cy="183.55338"
               sodipodi:rx="34.126202"
               sodipodi:ry="19.026114"
               d="M 448.76947,183.88543 A 34.126202,19.026114 0 1 1 448.77467,183.55338"
               sodipodi:start="0.017453293"
               sodipodi:end="6.2831853"
               sodipodi:open="true"
               transform="matrix(4.235982,0,0,7.178261,-703.1042,-1027.289)" /><path
               sodipodi:type="arc"
               style="fill:url(#linearGradient4478);fill-opacity:1;fill-rule:nonzero;stroke:none;stroke-width:1.80015659;stroke-linecap:round;stroke-linejoin:round;stroke-miterlimit:4;stroke-dashoffset:0;stroke-opacity:1"
               id="path4263"
               sodipodi:cx="432.16458"
               sodipodi:cy="319.7562"
               sodipodi:rx="40.770245"
               sodipodi:ry="27.180162"
               d="M 472.92862,320.23055 A 40.770245,27.180162 0 1 1 472.93483,319.75619"
               sodipodi:start="0.017453293"
               sodipodi:end="6.2831853"
               sodipodi:open="true"
               transform="matrix(2.704329,0,0,2.724285,-113.3757,-712.8947)" /><path
               style="fill:#ffffff;fill-opacity:0.18125;fill-rule:nonzero;stroke:none;stroke-width:1.80015659;stroke-linecap:round;stroke-linejoin:round;stroke-miterlimit:4;stroke-dashoffset:0;stroke-opacity:1"
               d="M 1193.8211,257.16004 C 1180.2056,314.22834 1122.2641,356.67238 1053.7227,355.6171 C 989.30476,354.6253 935.83559,315.47057 920.19849,263.07643 C 922.66579,325.9431 981.33384,376.86659 1054.5332,377.977 C 1130.1347,379.12378 1192.5616,326.73529 1193.8812,261.0363 L 1193.9112,258.95536 C 1193.9112,258.35007 1193.8315,257.76318 1193.8211,257.16004 z "
               id="path8289" /><g
               transform="matrix(2.010838,0,0,2.246829,902.8122,98.80455)"
               inkscape:label="Capa 1"
               id="g1546"
               style="fill:#ddfff9;fill-opacity:0.56716416"><g
                 id="g1548"
                 transform="matrix(1.015802,0,0,0.929809,-295.377,-228.8546)"
                 style="fill:#ddfff9;fill-opacity:0.56716416;stroke:none"><path
                   sodipodi:nodetypes="cssccsccsscccccccccccccccsssssccccccsscccsccscccsssccccsssccsssccsscc"
                   id="path1550"
                   d="M 336.88839,275.36607 C 336.88465,275.36767 336.86077,275.3957 336.85714,275.39732 C 336.85342,275.39863 336.82981,275.39634 336.82589,275.39732 C 336.37248,275.45348 335.93295,275.63953 335.60714,275.95982 L 331.23214,280.27232 C 331.22474,280.2796 331.20815,280.2962 331.20089,280.30357 C 330.30339,281.24454 330.51107,282.93754 331.66964,284.11607 L 337.95089,293.24107 C 337.95664,293.24692 337.97677,293.2666 337.98214,293.27232 C 338.00129,293.29326 338.02517,293.31551 338.04464,293.33482 C 338.04866,293.33852 338.0717,293.36256 338.07589,293.36607 C 336.38206,296.15839 335.0746,299.23049 334.29464,302.49107 C 334.29006,302.49102 334.26994,302.49087 334.26339,302.49107 L 323.16964,304.83482 C 321.49149,304.88436 320.16166,305.97505 320.20089,307.30357 L 320.38839,313.42857 C 320.4276,314.75709 321.804,315.79062 323.48214,315.74107 L 334.29464,317.36607 C 335.05468,320.56964 336.27859,323.58789 337.91964,326.33482 C 337.84304,326.46135 337.77935,326.60929 337.70089,326.77232 L 331.73214,336.05357 C 330.5633,337.25876 330.3718,338.97203 331.32589,339.89732 L 335.73214,344.14732 C 336.68624,345.07264 338.40707,344.85251 339.57589,343.64732 L 348.41964,337.14732 C 348.42877,337.1379 348.44222,337.12551 348.45089,337.11607 C 348.458,337.11617 348.48069,337.11639 348.48214,337.11607 C 351.41691,338.94882 354.67415,340.31078 358.13839,341.11607 C 358.13844,341.11894 358.13799,341.14381 358.13839,341.14732 C 358.13297,341.15857 358.11248,341.19914 358.10714,341.20982 C 357.98177,341.37474 357.90967,341.60394 357.91964,341.86607 L 360.32589,352.92857 C 360.38966,354.60624 361.49775,355.91658 362.82589,355.86607 L 368.95089,355.64732 C 370.27902,355.59684 371.29593,354.19997 371.23214,352.52232 L 372.82589,341.30357 C 372.82604,341.28284 372.82543,341.23125 372.82589,341.20982 C 372.82585,341.20723 372.82584,341.18512 372.82589,341.17857 C 372.81974,341.1561 372.80145,341.10662 372.79464,341.08482 C 375.91699,340.34631 378.85358,339.13088 381.54464,337.55357 C 381.56489,337.62319 381.58255,337.69889 381.60714,337.77232 C 381.60714,337.77232 388.35336,342.23415 391.57589,344.30357 C 392.97216,345.20022 394.46313,345.7264 395.41964,344.80357 L 399.82589,340.55357 C 400.78243,339.63078 400.27512,338.12686 399.45089,336.70982 C 398.44538,334.98111 397.16964,332.80357 397.16964,332.80357 L 392.85714,333.36607 L 386.79464,326.36607 C 381.94812,332.69061 374.36829,336.80655 365.79464,336.92857 C 350.91428,337.14034 338.66267,325.21519 338.45089,310.33482 C 338.34335,302.77837 341.35009,295.8961 346.29464,290.92857 C 348.44695,288.76625 350.94759,286.9584 353.73214,285.61607 L 353.73214,280.17857 C 351.92796,280.88204 350.20207,281.73421 348.57589,282.74107 L 339.45089,276.45982 C 338.73886,275.7355 337.85822,275.33749 337.04464,275.36607 C 337.03018,275.36583 336.99882,275.36679 336.98214,275.36607 C 336.97105,275.36584 336.92987,275.36525 336.91964,275.36607 C 336.91536,275.36726 336.89235,275.36462 336.88839,275.36607 z M 353.73214,289.05357 C 351.64115,290.21962 349.68923,291.70291 347.95089,293.52232 C 338.607,303.30198 338.98375,318.83468 348.76339,328.17857 C 358.54304,337.52247 374.04451,337.17698 383.38839,327.39732 C 384.16561,326.58385 384.86975,325.72126 385.51339,324.83482 L 385.00474,324.96523 C 373.18331,337.07575 358.46797,335.58261 349.76212,327.26466 C 341.05627,318.94673 340.93524,303.43672 349.25319,294.73087 C 350.42795,293.50133 352.37161,292.21575 353.73214,291.31696 L 353.73214,289.05357 z "
                   style="opacity:1;fill:#ddfff9;fill-opacity:0.56716416;stroke:none;stroke-width:0.35499999;stroke-linejoin:round;stroke-miterlimit:4;stroke-dasharray:none;stroke-dashoffset:0;stroke-opacity:1" /><path
                   sodipodi:nodetypes="cccccccccccc"
                   id="path1552"
                   d="M 394.625,261.89285 L 372.78125,290.9241 L 372.78125,262.12946 L 357.28125,263.20089 L 357.28125,328.2991 L 372.78125,326.2991 L 372.78125,297.0491 L 393.78125,328.5491 L 410.625,323.70535 L 388.625,294.7991 L 410.625,266.39285 L 394.625,261.89285 z "
                   style="fill:#ddfff9;fill-opacity:0.56716416;stroke:none;stroke-width:0.34953144;stroke-linejoin:round;stroke-miterlimit:4;stroke-dashoffset:0;stroke-opacity:1" /></g></g></g></g></g></g></g></svg>